# xmcd
#
# Track frame offsets: 
#        150
#        11326
#        24592
#        43380
#        61746
#        76113
#        89192
#        103525
#        119992
#        132011
#        145926
#        162238
#
# Disc length: 2346 seconds
#
# Revision: 0
# Processed by: cddbd v1.5.2PL0 Copyright (c) Steve Scherf et al.
# Submitted via: ExactAudioCopyFreeDBPlugin 1.0
#
DISCID=a009280c
DTITLE=Don Williams - ICON 2
DYEAR=2010
DGENRE=Country
TTITLE0=It Must Be Love
TTITLE1=Love Me Over Again
TTITLE2=Good Ole Boys Like Me
TTITLE3=Lord, I Hope This Day Is A Good
TTITLE4=Listen To The Radio
TTITLE5=Mistakes
TTITLE6=If Hollywood Don't Need You
TTITLE7=Love Is On A Roll
TTITLE8=Nobody But You
TTITLE9=Stay Young
TTITLE10=That's The Thing About Love
TTITLE11=Walkin A Broken Heart
EXTD=
EXTT0=
EXTT1=
EXTT2=
EXTT3=
EXTT4=
EXTT5=
EXTT6=
EXTT7=
EXTT8=
EXTT9=
EXTT10=
EXTT11=
PLAYORDER=
